#!OML:ASF I:\Actors\actors\Patient Classification 1\Patient 1\Session 1\Subject1.ASF
:FULLY-SPECIFIED
:DEGREES
668
root 0.773235 17.4406 9.62679 9.00473 0.31069 -8.54346
lowerback -0.775547 4.47027 8.48053
upperback -8.25754 6.30652 -0.614184
thorax -7.33291 2.54929 -5.66518
lowerneck -7.79142 5.90094 9.10775
upperneck 36.4679 8.82644 -4.56922
head 14.4859 4.60579 -2.15872
rclavicle -1.93815e-014 -9.54166e-015
rhumerus -21.4821 56.5286 -106.064
rradius 94.8058
rwrist 10.8487
rhand 3.23347 -36.555
rfingers 7.12502
rthumb 28.6836 -784.373
lclavicle -1.93815e-014 -9.54166e-015
lhumerus -46.8269 -12.1938 94.5615
lradius 108.871
lwrist 78.8317
lhand -17.8448 6.99611
lfingers 7.12502
lthumb 8.42014 36.8083
rfemur -2.45479 23.0288 25.4603
rtibia 4.2558
rfoot -14.6292 -27.859
rtoes 2.45618
lfemur 6.30676 -41.6656 -12.3456
ltibia -4.15854
lfoot -18.6709 48.3676
ltoes 4.11987
669
root 0.778471 17.4423 9.62763 9.03178 0.233789 -8.59754
lowerback -0.859659 4.47856 8.49348
upperback -8.19715 6.3092 -0.554232
thorax -7.22266 2.55978 -5.59725
lowerneck -7.89287 5.9049 9.05503
upperneck 36.5339 8.83238 -4.55479
head 14.5365 4.6005 -2.14011
rclavicle 5.36719e-015 -7.95139e-015
rhumerus -21.0593 57.1564 -105.263
rradius 94.4166
rwrist 15.24
rhand 1.86013 -33.9046
rfingers 7.12502
rthumb 27.3708 -781.937
lclavicle 5.36719e-015 -7.95139e-015
lhumerus -46.785 -12.2013 94.6369
lradius 108.898
lwrist 79.0969
lhand -17.6438 7.17211
lfingers 7.12502
lthumb 8.61405 36.9764
rfemur -2.48965 22.9633 25.4777
rtibia 4.2498
rfoot -14.5217 -27.7511
rtoes 2.0931
lfemur 6.32697 -41.6686 -12.3259
ltibia -4.16383
lfoot -18.7729 48.4225
ltoes 4.24114
670
root 0.782954 17.443 9.62923 9.05861 0.12919 -8.5481
lowerback -0.929281 4.48328 8.36552
upperback -8.14883 6.30336 -0.510679
thorax -7.14515 2.57247 -5.47139
lowerneck -8.00701 5.89404 8.90213
upperneck 36.5732 8.82251 -4.50548
head 14.5667 4.57857 -2.09194
rclavicle 2.61402e-014 -2.38542e-014
rhumerus -19.4927 58.7153 -103.105
rradius 94.1427
rwrist 17.9257
rhand -0.0796781 -30.1392
rfingers 7.12502
rthumb 25.5141 -778.451
lclavicle 2.61402e-014 -2.38542e-014
lhumerus -46.7586 -12.2133 94.734
lradius 108.933
lwrist 79.214
lhand -17.5041 7.14086
lfingers 7.12502
lthumb 8.7489 36.9395
rfemur -2.51854 22.9484 25.3783
rtibia 4.2414
rfoot -14.4726 -27.672
rtoes 1.9413
lfemur 6.33138 -41.6318 -12.4293
ltibia -4.12619
lfoot -18.9845 48.4269
ltoes 4.53639
671
root 0.786063 17.4435 9.63058 9.0542 -0.0143392 -8.50707
lowerback -0.904768 4.48916 8.27718
upperback -8.13448 6.30954 -0.510788
thorax -7.14979 2.58127 -5.42462
lowerneck -7.9991 5.86154 8.86485
upperneck 36.5759 8.76425 -4.46433
head 14.5557 4.55293 -2.07837
rclavicle 3.26007e-014 4.37326e-014
rhumerus -19.4601 58.2635 -103.029
rradius 93.5259
rwrist 23.3773
rhand -2.24063 -25.8341
rfingers 7.12502
rthumb 23.4426 -774.426
lclavicle 3.26007e-014 4.37326e-014
lhumerus -46.85 -12.2686 94.7425
lradius 109.031
lwrist 79.1708
lhand -17.6549 7.25808
lfingers 7.12502
lthumb 8.60335 37.0628
rfemur -2.52029 23.0271 25.3075
rtibia 4.24413
rfoot -14.4565 -27.6452
rtoes 1.91737
lfemur 6.40742 -41.5881 -12.5544
ltibia -4.12883
lfoot -19.194 48.4748
ltoes 4.80247
672
root 0.789954 17.4447 9.63112 9.0394 -0.171829 -8.45953
lowerback -0.869914 4.48447 8.20845
upperback -8.10316 6.30198 -0.513941
thorax -7.1419 2.58287 -5.39154
lowerneck -7.88876 5.84003 8.99387
upperneck 36.496 8.7423 -4.57398
head 14.5055 4.5483 -2.15263
rclavicle 7.90169e-014 0
rhumerus -18.5248 59.0759 -101.793
rradius 93.1667
rwrist 28.2086
rhand -5.46965 -22.6714
rfingers 7.12502
rthumb 20.3421 -771.626
lclavicle 7.90169e-014 0
lhumerus -46.9361 -12.2898 94.6857
lradius 109.114
lwrist 79.1575
lhand -17.903 7.40428
lfingers 7.12502
lthumb 8.36397 37.2187
rfemur -2.52795 23.0254 25.2178
rtibia 4.25545
rfoot -14.3832 -27.5532
rtoes 1.65664
lfemur 6.53876 -41.6952 -12.7486
ltibia -4.12248
lfoot -19.4049 48.6831
ltoes 5.0294
673
root 0.793882 17.4456 9.63081 9.02751 -0.338197 -8.41421
lowerback -0.822215 4.47841 8.15901
upperback -8.06004 6.29391 -0.515434
thorax -7.12718 2.58364 -5.3678
lowerneck -7.83947 5.84744 9.08653
upperneck 36.4271 8.77251 -4.69518
head 14.4777 4.55834 -2.21518
rclavicle 2.48481e-015 -2.46493e-014
rhumerus -17.1883 59.8522 -100.198
rradius 92.8938
rwrist 32.6377
rhand -8.23221 -19.7747
rfingers 7.12502
rthumb 17.6854 -768.99
lclavicle 2.48481e-015 -2.46493e-014
lhumerus -46.9847 -12.2635 94.6108
lradius 109.143
lwrist 79.2694
lhand -17.8921 7.40641
lfingers 7.12502
lthumb 8.37445 37.2204
rfemur -2.54893 22.9729 25.1226
rtibia 4.28345
rfoot -14.2683 -27.4025
rtoes 1.30037
lfemur 6.60648 -41.6653 -12.8961
ltibia -4.07628
lfoot -19.4663 48.7744
ltoes 5.08183
